<svg xmlns="http://www.w3.org/2000/svg" width="700" height="587" version="1.1">
  <path d="M 132 198
    C 133 197 134 193 133 193
    C 107 166 70 111 61 97
    C 55 87 40 60 30 51
    C 27 48 10 45 5 44
    L 0 44
    C -1 44 -4 43 -3 43
    C 0 42 2 42 5 41
    L 27 35
    L 60 25
    C 65 25 102 7 125 4
    C 209 -9 267 24 308 78
  z" fill="#FAA"/>
  
  <path d="M 568 198
    C 567 197 566 193 567 193
    C 593 166 630 111 639 97
    C 645 87 660 60 670 51
    C 673 48 690 45 695 44
    L 700 44
    C 701 44 704 43 703 43
    C 700 42 698 42 695 41
    L 673 35
    L 640 25
    C 635 25 598 7 575 4
    C 491 -9 433 24 392 78
  z" fill="#FAA" />
  
  <circle cx="350" cy="331" r="256" fill="#FAA" />
  
  <ellipse cx="232" cy="259" rx="94" ry="96" fill="#FFF" />
  <circle cx="256" cy="274" r="29" fill="#000" />

  <ellipse cx="468" cy="259" rx="94" ry="96" fill="#FFF" />
  <circle cx="444" cy="274" r="29" fill="#000" />
  
  <ellipse cx="350" cy="415" rx="149" ry="125" fill="#FAA" stroke="#000" stroke-width="10" />
  <circle cx="283" cy="405" r="29" fill="#000" />
  <circle cx="417" cy="405" r="29" fill="#000" />
</svg>