<svg xmlns="http://www.w3.org/2000/svg" width="700" height="587" version="1.1">
  <circle cx="350" cy="331" r="256" fill="#CCC" stroke="#000" stroke-width="5" />

  <path d="M 132 198
    C 133 197 134 193 133 193
    C 107 166 70 111 61 97
    C 55 87 40 60 30 51
    C 27 48 10 45 5 44
    L 0 44
    L 27 35
    L 60 25
    C 65 25 102 7 125 4
    C 209 -9 267 24 308 78
  z" fill="#CCC" stroke="#000" stroke-width="5" />

  <path d="M 130 180
    L 135 195
    L 132 210
    L 317 95
    L 295 65
  z" fill="#CCC" />

  <path d="M 568 198
    C 567 197 566 193 567 193
    C 593 166 630 111 639 97
    C 645 87 660 60 670 51
    C 673 48 690 45 695 44
    L 700 44
    L 673 35
    L 640 25
    C 635 25 598 7 575 4
    C 491 -9 433 24 392 78
  z" fill="#CCC" stroke="#000" stroke-width="5" />

  <path d="M 570 180
    L 565 195
    L 568 210
    L 383 95
    L 405 65
  z" fill="#CCC" />

  <ellipse cx="232" cy="259" rx="94" ry="96" fill="#FFF" stroke="#000" stroke-width="3" />
  <circle cx="255" cy="274" r="28" fill="#000" />

  <ellipse cx="468" cy="259" rx="94" ry="96" fill="#FFF" stroke="#000" stroke-width="3" />
  <circle cx="445" cy="274" r="28" fill="#000" />

  <ellipse cx="350" cy="415" rx="144" ry="120" fill="#CCC" stroke="#000" stroke-width="8" />
  <circle cx="283" cy="405" r="29" fill="#000" />
  <circle cx="417" cy="405" r="29" fill="#000" />
</svg>